<?xml version="1.0" encoding="UTF-8" standalone="no"?>
<svg xmlns="http://www.w3.org/2000/svg" fill="none" height="6" viewBox="0 0 30 6" width="30">
<path d="M28.4572 0.107709L28.11 0.107709L28.11 0L28.8877 0L28.8877 0.107709L28.5648 0.107709L28.5648 0.897573L28.4213 0.897573L28.4213 0.107709L28.4572 0.107709ZM29.0671 0L29.2106 0L29.5336 0.502641L29.8565 0L30 0L30 0.897573L29.8565 0.897573L29.8565 0.215418L29.5336 0.718059L29.2106 0.215418L29.2106 0.897573L29.0671 0.897573L29.0671 0Z" fill="#8C8E99"/>
<path d="M2.61651 5.28C3.73994 5.28 4.38501 4.79407 4.86337 4.13407L3.80517 3.37978C3.50076 3.74967 3.1891 3.99626 2.66 3.99626C1.9497 3.99626 1.44959 3.40154 1.44959 2.64L1.44959 2.62549C1.44959 1.88571 1.9497 1.28374 2.66 1.28374C3.14561 1.28374 3.47901 1.51582 3.76893 1.87846L4.82713 1.0589C4.37776 0.435165 3.71095 -1.07436e-10 2.67449 0C1.13793 0 0 1.16044 0 2.64L0 2.65451C-1.20647e-10 4.17033 1.16692 5.28 2.61651 5.28Z" fill="#8C8E99"/>
<path d="M5.42486 5.17846L6.83821 5.17846L6.83821 0.101538L5.42486 0.101538L5.42486 5.17846Z" fill="#8C8E99"/>
<path d="M10.1371 5.28C11.2605 5.28 11.9056 4.79407 12.384 4.13407L11.3258 3.37978C11.0214 3.74967 10.7097 3.99626 10.1806 3.99626C9.47029 3.99626 8.97018 3.40154 8.97018 2.64L8.97018 2.62549C8.97018 1.88571 9.47029 1.28374 10.1806 1.28374C10.6662 1.28374 10.9996 1.51582 11.2895 1.87846L12.3477 1.0589C11.8984 0.435165 11.2315 -3.25165e-10 10.1951 -2.95159e-10C8.65852 -2.50673e-10 7.52059 1.16044 7.52059 2.64L7.52059 2.65451C7.52059 4.17033 8.68751 5.28 10.1371 5.28Z" fill="#8C8E99"/>
<path d="M12.9165 5.17846L17.0333 5.17846L17.0333 3.98176L14.3081 3.98176L14.3081 3.1767L16.7434 3.1767L16.7434 2.06703L14.3081 2.06703L14.3081 1.29824L16.9971 1.29824L16.9971 0.101538L12.9165 0.101538L12.9165 5.17846Z" fill="#8C8E99"/>
<path d="M17.6783 5.17846L19.0844 5.17846L19.0844 3.64088L19.686 3.64088L19.7005 3.64088L20.7224 5.17846L22.346 5.17846L21.1356 3.40879C21.7662 3.14044 22.1793 2.62549 22.1793 1.84945L22.1793 1.83495C22.1793 1.33451 22.0271 0.942857 21.7299 0.652747C21.3893 0.304615 20.8529 0.101538 20.0774 0.101538L17.6783 0.101538L17.6783 5.17846ZM19.0844 2.53846L19.0844 1.32L20.0049 1.32C20.476 1.32 20.7659 1.52308 20.7659 1.92198L20.7659 1.93648C20.7659 2.30637 20.4905 2.53846 20.0121 2.53846L19.0844 2.53846Z" fill="#8C8E99"/>
<path d="M25.3666 5.28C26.9321 5.28 28.1063 4.0978 28.1063 2.64L28.1063 2.62549C28.1063 1.16769 26.9466 -7.80133e-10 25.3811 -7.34809e-10C23.8155 -6.89484e-10 22.6413 1.1822 22.6413 2.64L22.6413 2.65451C22.6413 4.11231 23.801 5.28 25.3666 5.28ZM25.3811 4.01077C24.6128 4.01077 24.0837 3.37253 24.0837 2.64L24.0837 2.62549C24.0837 1.89297 24.5983 1.26923 25.3666 1.26923C26.1421 1.26923 26.6712 1.90747 26.6712 2.64L26.6712 2.65451C26.6712 3.38703 26.1566 4.01077 25.3811 4.01077Z" fill="#8C8E99"/>
</svg>
