<?xml version="1.0" encoding="UTF-8" standalone="no"?>
<svg xmlns="http://www.w3.org/2000/svg" fill="none" height="50" viewBox="0 0 50 50" width="50">
<rect fill="white" height="49" rx="24.5" width="49" x="0.5" y="0.5"/>
<path d="M25.1075 24.1826C25.9417 24.1826 26.7572 23.9351 27.4508 23.4716C28.1445 23.0081 28.685 22.3492 29.0042 21.5785C29.3233 20.8077 29.4067 19.9595 29.2437 19.1413C29.0808 18.3232 28.6789 17.5717 28.0888 16.982C27.4987 16.3922 26.747 15.9907 25.9287 15.8283C25.1104 15.6658 24.2624 15.7497 23.4918 16.0693C22.7212 16.3889 22.0626 16.9299 21.5995 17.6238C21.1364 18.3177 20.8895 19.1333 20.89 19.9676C20.8913 21.0855 21.3361 22.1572 22.1268 22.9474C22.9176 23.7377 23.9895 24.1819 25.1075 24.1826ZM25.1075 17.2501C25.6449 17.2501 26.1703 17.4094 26.6172 17.708C27.0641 18.0066 27.4124 18.4311 27.6181 18.9276C27.8238 19.4242 27.8776 19.9706 27.7727 20.4977C27.6679 21.0249 27.4091 21.5091 27.029 21.8891C26.649 22.2692 26.1648 22.528 25.6376 22.6328C25.1105 22.7377 24.5641 22.6839 24.0675 22.4782C23.571 22.2725 23.1465 21.9242 22.8479 21.4773C22.5493 21.0304 22.39 20.505 22.39 19.9676C22.39 19.2468 22.6763 18.5556 23.1859 18.046C23.6955 17.5364 24.3867 17.2501 25.1075 17.2501Z" fill="#696A78"/>
<path d="M32.6849 22.575C31.737 22.5633 30.8132 22.8737 30.0647 23.4555C29.3162 24.0373 28.7874 24.856 28.5649 25.7775C26.2865 24.8556 23.7367 24.8682 21.4674 25.8125C21.2535 24.8807 20.7271 24.0502 19.9758 23.459C19.2244 22.8678 18.2934 22.5514 17.3374 22.5625C15.0124 22.575 13.1224 24.3925 13.1224 26.625H14.6224C14.6224 25.22 15.8399 24.075 17.3374 24.075C18.8349 24.075 20.0099 25.185 20.0474 26.56C18.8439 27.3184 17.8505 28.3673 17.1585 29.6102C16.4665 30.8531 16.0982 32.25 16.0874 33.6725H17.5874C17.5874 29.77 20.9374 26.595 25.0574 26.595C29.1774 26.595 32.5274 29.77 32.5274 33.6725H34.0274C34.017 32.2315 33.6397 30.8168 32.9312 29.5619C32.2226 28.307 31.2061 27.2533 29.9774 26.5C30.0449 25.15 31.2274 24.07 32.6849 24.07C34.1849 24.07 35.3999 25.215 35.3999 26.62H36.8999C36.8999 24.3925 35.0099 22.575 32.6849 22.575Z" fill="#696A78"/>
<path d="M32.7049 21.8476C33.1427 21.8486 33.571 21.7197 33.9355 21.4772C34.3 21.2347 34.5844 20.8895 34.7526 20.4853C34.9208 20.0811 34.9653 19.6361 34.8805 19.2065C34.7957 18.777 34.5854 18.3823 34.2762 18.0724C33.967 17.7625 33.5727 17.5513 33.1434 17.4655C32.7141 17.3797 32.269 17.4232 31.8644 17.5905C31.4598 17.7579 31.114 18.0414 30.8707 18.4054C30.6273 18.7693 30.4974 19.1973 30.4974 19.6351C30.4981 20.2208 30.7307 20.7824 31.1444 21.1971C31.5581 21.6117 32.1192 21.8456 32.7049 21.8476ZM32.7049 18.9251C32.8462 18.9241 32.9845 18.9651 33.1024 19.0429C33.2203 19.1207 33.3124 19.2318 33.367 19.362C33.4216 19.4923 33.4363 19.6358 33.4092 19.7744C33.382 19.913 33.3143 20.0405 33.2146 20.1405C33.1149 20.2406 32.9878 20.3087 32.8492 20.3363C32.7107 20.3639 32.5671 20.3498 32.4367 20.2956C32.3063 20.2415 32.1949 20.1497 32.1167 20.0321C32.0384 19.9145 31.9969 19.7763 31.9974 19.6351C31.9981 19.4474 32.0728 19.2676 32.2052 19.1347C32.3377 19.0017 32.5173 18.9264 32.7049 18.9251Z" fill="#696A78"/>
<path d="M17.3575 21.8476C17.7951 21.8476 18.2228 21.7178 18.5867 21.4747C18.9505 21.2316 19.2341 20.8861 19.4015 20.4818C19.569 20.0775 19.6128 19.6327 19.5274 19.2035C19.4421 18.7743 19.2314 18.3801 18.9219 18.0706C18.6125 17.7612 18.2183 17.5505 17.7891 17.4651C17.3599 17.3798 16.9151 17.4236 16.5108 17.591C16.1065 17.7585 15.7609 18.0421 15.5178 18.4059C15.2747 18.7698 15.145 19.1975 15.145 19.6351C15.145 20.2219 15.3781 20.7847 15.793 21.1996C16.2079 21.6145 16.7707 21.8476 17.3575 21.8476ZM17.3575 18.9251C17.4985 18.9251 17.6363 18.967 17.7536 19.0454C17.8708 19.1238 17.9621 19.2352 18.016 19.3655C18.0698 19.4959 18.0838 19.6393 18.0561 19.7775C18.0284 19.9158 17.9603 20.0428 17.8604 20.1423C17.7605 20.2419 17.6333 20.3095 17.4949 20.3367C17.3565 20.3639 17.2132 20.3495 17.0831 20.2952C16.9529 20.2408 16.8418 20.1491 16.7638 20.0316C16.6858 19.9141 16.6445 19.7761 16.645 19.6351C16.645 19.5417 16.6634 19.4491 16.6992 19.3628C16.7351 19.2765 16.7876 19.1981 16.8538 19.1322C16.92 19.0662 16.9986 19.014 17.085 18.9784C17.1714 18.9429 17.264 18.9248 17.3575 18.9251Z" fill="#696A78"/>
<rect height="49" rx="24.5" stroke="#CCD1D9" width="49" x="0.5" y="0.5"/>
</svg>
