<?xml version="1.0" encoding="UTF-8" standalone="no"?>
<svg xmlns="http://www.w3.org/2000/svg" fill="none" height="50" viewBox="0 0 50 50" width="50">
<rect fill="white" height="49" rx="24.5" width="49" x="0.5" y="0.5"/>
<path d="M35.525 34.0325H14.5475V35.5325H35.525V34.0325Z" fill="#696A78"/>
<path d="M31.33 15.25C31.0534 14.9889 30.7276 14.7855 30.3715 14.6517C30.0155 14.518 29.6363 14.4565 29.2562 14.4709C28.8762 14.4854 28.5028 14.5754 28.1579 14.7358C27.813 14.8962 27.5035 15.1237 27.2475 15.405L24.2775 18.6875H26.3025L28.3675 16.415C28.4896 16.2816 28.637 16.1738 28.8011 16.0978C28.9653 16.0218 29.1429 15.9792 29.3236 15.9725C29.5043 15.9657 29.6846 15.995 29.8539 16.0585C30.0233 16.122 30.1783 16.2186 30.31 16.3425L33.2675 19.07L23.55 30.1275L21.0875 30.605L21.2475 28.2625L30.2975 18.105L29.1775 17.105L19.7925 27.6475L19.4525 32.4525L24.34 31.5L35.3625 18.9625L31.33 15.25Z" fill="#696A78"/>
<rect height="49" rx="24.5" stroke="#CCD1D9" width="49" x="0.5" y="0.5"/>
</svg>
