<?xml version="1.0" encoding="UTF-8" standalone="no"?>
<svg xmlns="http://www.w3.org/2000/svg" fill="none" height="50" viewBox="0 0 50 50" width="50">
<rect fill="white" height="49" rx="24.5" width="49" x="0.5" y="0.5"/>
<path d="M29.395 34.04H20.605V35.54H29.395V34.04Z" fill="#696A78"/>
<path d="M32.4875 14.5625V14.595V14.51H17.5125V14.595V14.5675L13.67 24.2975L13.79 24.5775C13.8275 24.665 14.7225 26.7025 17.5125 26.7025C20.3025 26.7025 21.1825 24.6575 21.2175 24.57L21.3325 24.2925L18.07 16.01H24.2375V31.64H22.9375V33.14H27.0525V31.64H25.7375V16.01H31.91L28.66 24.3025L28.78 24.5825C28.815 24.67 29.7125 26.7075 32.5025 26.7075C35.2925 26.7075 36.17 24.6625 36.2075 24.575L36.3225 24.2975L32.4875 14.5625ZM17.5125 25.2025C16.2125 25.2025 15.57 24.5725 15.3125 24.2225L17.5025 18.6575L19.695 24.2275C19.4475 24.5775 18.82 25.2025 17.5125 25.2025ZM32.49 25.2025C31.19 25.2025 30.545 24.5725 30.2875 24.2225L32.4875 18.6575L34.68 24.225C34.415 24.5775 33.7825 25.2025 32.4875 25.2025H32.49Z" fill="#696A78"/>
<rect height="49" rx="24.5" stroke="#CCD1D9" width="49" x="0.5" y="0.5"/>
</svg>
