<?xml version="1.0" encoding="UTF-8" standalone="no"?>
<svg xmlns="http://www.w3.org/2000/svg" fill="none" height="50" viewBox="0 0 50 50" width="50">
<rect fill="white" height="49" rx="24.5" width="49" x="0.5" y="0.5"/>
<path d="M29.8425 24.1951H20.4525V25.6951H29.8425V24.1951Z" fill="#696A78"/>
<path d="M29.8425 26.97H20.4525V28.47H29.8425V26.97Z" fill="#696A78"/>
<path d="M24.1025 21.2225H20.4525V22.7225H24.1025V21.2225Z" fill="#696A78"/>
<path d="M33.9875 21.1925L25.0475 14.5225V14.51H25.03V16.3725V22.6925H32.5C32.4225 27.5225 29.5275 31.8325 25.03 33.8625C20.4725 31.805 17.56 27.405 17.56 22.495V18.5625L24.125 16.395V14.815L16.06 17.4775V22.495C16.06 28.3225 19.74 33.3775 25.015 35.495V35.51H25.03H25.0475V35.485C30.2625 33.4025 33.9175 28.4375 34 22.6925H34.025V21.1925H33.9875ZM26.5225 21.1925V17.51L31.4875 21.1925H26.5225Z" fill="#696A78"/>
<rect height="49" rx="24.5" stroke="#CCD1D9" width="49" x="0.5" y="0.5"/>
</svg>
