<?xml version="1.0" encoding="UTF-8" standalone="no"?>
<svg xmlns="http://www.w3.org/2000/svg" fill="none" height="50" viewBox="0 0 50 50" width="50">
<rect fill="white" height="49" rx="24.5" width="49" x="0.5" y="0.5"/>
<path d="M25.0625 30.8075C24.6104 30.7928 24.1726 30.6452 23.8039 30.3832C23.4351 30.1212 23.1517 29.7563 22.9891 29.3342C22.8264 28.9122 22.7916 28.4515 22.8892 28.0098C22.9867 27.5681 23.2122 27.1649 23.5375 26.8505C23.8628 26.5362 24.2735 26.3246 24.7183 26.2422C25.1631 26.1599 25.6223 26.2103 26.0386 26.3874C26.4548 26.5644 26.8098 26.8601 27.059 27.2376C27.3082 27.6151 27.4408 28.0577 27.44 28.51C27.4282 29.1296 27.1714 29.7192 26.7258 30.1498C26.2802 30.5804 25.6821 30.8169 25.0625 30.8075ZM25.0625 27.7075C24.9078 27.722 24.7607 27.7812 24.6389 27.8777C24.5172 27.9742 24.4261 28.104 24.3767 28.2513C24.3273 28.3986 24.3217 28.5571 24.3606 28.7075C24.3995 28.858 24.4813 28.9938 24.5959 29.0987C24.7106 29.2036 24.8532 29.2729 25.0065 29.2982C25.1598 29.3236 25.3172 29.3039 25.4595 29.2416C25.6018 29.1793 25.723 29.0769 25.8083 28.9471C25.8936 28.8172 25.9393 28.6654 25.94 28.51C25.929 28.2876 25.8306 28.0786 25.6663 27.9283C25.502 27.778 25.285 27.6987 25.0625 27.7075Z" fill="#696A78"/>
<path d="M29.35 35.465H27.85C27.85 33.98 26.565 32.76 24.9875 32.76C23.41 32.76 22.1175 33.98 22.1175 35.465H20.6175C20.6175 33.1525 22.575 31.26 24.9875 31.26C27.4 31.26 29.35 33.1525 29.35 35.465Z" fill="#696A78"/>
<path d="M21.2225 21.1951C21.8811 21.1951 22.415 20.6612 22.415 20.0026C22.415 19.344 21.8811 18.8101 21.2225 18.8101C20.5639 18.8101 20.03 19.344 20.03 20.0026C20.03 20.6612 20.5639 21.1951 21.2225 21.1951Z" fill="#696A78"/>
<path d="M25.015 21.1951C25.6736 21.1951 26.2075 20.6612 26.2075 20.0026C26.2075 19.344 25.6736 18.8101 25.015 18.8101C24.3564 18.8101 23.8225 19.344 23.8225 20.0026C23.8225 20.6612 24.3564 21.1951 25.015 21.1951Z" fill="#696A78"/>
<path d="M28.7975 21.1951C29.4561 21.1951 29.99 20.6612 29.99 20.0026C29.99 19.344 29.4561 18.8101 28.7975 18.8101C28.1389 18.8101 27.605 19.344 27.605 20.0026C27.605 20.6612 28.1389 21.1951 28.7975 21.1951Z" fill="#696A78"/>
<path d="M30.065 14.51H19.92C19.2026 14.4946 18.4893 14.6225 17.822 14.8864C17.1547 15.1503 16.5467 15.5447 16.0339 16.0467C15.521 16.5486 15.1136 17.1479 14.8354 17.8093C14.5572 18.4708 14.4139 19.1812 14.4139 19.8988C14.4139 20.6164 14.5572 21.3268 14.8354 21.9882C15.1136 22.6497 15.521 23.249 16.0339 23.7509C16.5467 24.2528 17.1547 24.6473 17.822 24.9112C18.4893 25.175 19.2026 25.303 19.92 25.2875H27.76V23.7875H19.92C19.401 23.8007 18.8847 23.7098 18.4014 23.5203C17.9181 23.3308 17.4776 23.0465 17.1058 22.6841C16.7341 22.3217 16.4387 21.8885 16.237 21.4102C16.0353 20.9318 15.9314 20.4179 15.9314 19.8988C15.9314 19.3796 16.0353 18.8658 16.237 18.3874C16.4387 17.909 16.7341 17.4759 17.1058 17.1135C17.4776 16.7511 17.9181 16.4668 18.4014 16.2772C18.8847 16.0877 19.401 15.9969 19.92 16.01H30.065C31.0976 16.0114 32.0874 16.4227 32.8168 17.1535C33.5463 17.8844 33.9557 18.875 33.955 19.9075C33.9776 20.3789 33.9035 20.8499 33.7371 21.2914C33.5707 21.733 33.3156 22.1358 32.9875 22.475L32.8625 22.6275C32.515 23.0475 31.2 24.51 30.1725 25.665V23.795H28.6725V25.295H28.685V29.5675L29.9875 28.1225C30.1275 27.9675 33.425 24.3175 34.0275 23.5775L34.145 23.435C34.5872 22.9634 34.9315 22.4089 35.1581 21.8034C35.3846 21.1979 35.489 20.5536 35.465 19.9075C35.4653 19.1984 35.3259 18.4962 35.0546 17.841C34.7833 17.1859 34.3855 16.5906 33.884 16.0893C33.3824 15.588 32.787 15.1905 32.1317 14.9195C31.4764 14.6485 30.7741 14.5094 30.065 14.51Z" fill="#696A78"/>
<rect height="49" rx="24.5" stroke="#CCD1D9" width="49" x="0.5" y="0.5"/>
</svg>
