<?xml version="1.0" encoding="UTF-8" standalone="no"?>
<svg xmlns="http://www.w3.org/2000/svg" fill="none" height="41" viewBox="0 0 40 41" width="40">
<rect fill="#F7F7F8" height="40" rx="20" width="40" y="0.236328"/>
<g clip-path="url(#clip0_8528_8920)">
<path d="M23.1156 9.76562H21.3256V11.2656V15.6481H26.0481V29.1206H13.9531V11.2656H20.4231V9.76562H12.4531V30.6206H27.5481V13.9456L23.1156 9.76562ZM22.8306 14.1481V11.5606L25.5806 14.1481H22.8306Z" fill="#696A78"/>
<path d="M24.2925 26.1973H15.6875V27.6973H24.2925V26.1973Z" fill="#696A78"/>
<path d="M24.2925 23.1406H15.6875V24.6406H24.2925V23.1406Z" fill="#696A78"/>
<path d="M24.2925 20.0801H15.6875V21.5801H24.2925V20.0801Z" fill="#696A78"/>
<path d="M24.2925 17.0234H15.6875V18.5234H24.2925V17.0234Z" fill="#696A78"/>
<path d="M20.06 13.9648H15.6875V15.4648H20.06V13.9648Z" fill="#696A78"/>
</g>
<defs>
<clipPath id="clip0_8528_8920">
<rect fill="white" height="24" transform="translate(8 8.23633)" width="24"/>
</clipPath>
</defs>
</svg>
