<?xml version="1.0" encoding="UTF-8" standalone="no"?>
<svg xmlns="http://www.w3.org/2000/svg" fill="none" height="60" viewBox="0 0 56 56" width="60">
<path d="M52.3831 48.8833H3.44141V52.3833H52.3831V48.8833Z" fill="#990000"/>
<path d="M46.4915 18.4918L44.0998 14.8751H42.6415V18.4918H39.3165V8.5168L36.9831 6.5918C33.6581 10.2085 33.8915 15.8668 37.5081 19.1918C38.7915 20.3585 40.3081 21.1168 41.9998 21.4085C37.9165 35.3501 25.9581 41.9418 18.4915 41.9418C15.2831 41.9418 12.5998 40.6585 11.1415 38.5001C9.09979 35.3501 9.39145 30.3918 12.1331 24.1501C14.0581 19.7168 18.0831 15.7501 21.9915 14.5251C23.3331 14.0585 25.2581 13.7668 26.9498 14.7585C27.5331 15.0501 27.8831 15.6335 27.8831 16.2751C28.1748 18.4335 26.5415 22.0501 24.0915 24.5585L26.5998 27.0085C29.2248 24.2668 31.8498 19.6001 31.3248 15.8085C31.1498 14.1168 30.1581 12.6001 28.6415 11.7251C26.4248 10.4418 23.7415 10.2668 20.8831 11.2001C16.0415 12.8335 11.2581 17.4418 8.92479 22.7501C4.89979 32.0835 6.29979 37.5085 8.22479 40.4251C10.3248 43.6335 14.0581 45.4418 18.4915 45.4418C27.5331 45.4418 41.3581 37.9168 45.6165 21.3501C47.4248 20.9418 48.9998 19.9501 50.2248 18.5501L46.4915 18.4918Z" fill="#990000"/>
<path d="M43.5753 3.6167C41.067 3.6167 38.6753 4.6667 37.042 6.47503H44.9753C46.7837 6.47503 48.067 6.9417 48.8837 7.75837C49.5837 8.5167 49.992 9.50837 49.9337 10.5584V10.6167C49.992 12.25 49.0003 13.7084 47.4837 14.2917L50.342 18.4334C51.8003 16.8 52.5587 14.7 52.5587 12.5417C52.5003 7.6417 48.5337 3.6167 43.5753 3.6167Z" fill="#990000"/>
<path d="M46.5497 10.8499C46.5497 9.85827 45.8497 9.3916 44.7413 9.3916H42.583V12.2499H44.7997C45.908 12.2499 46.5497 11.7249 46.5497 10.8499Z" fill="#990000"/>
</svg>
