<?xml version="1.0" encoding="UTF-8" standalone="no"?>
<svg xmlns="http://www.w3.org/2000/svg" fill="none" height="96" viewBox="0 0 96 96" width="96">
  
  <g clip-path="url(#clip0_217_3116)">
    
    <path d="M57.3799 64.08C56.5842 64.08 55.8212 64.3961 55.2586 64.9587C54.696 65.5213 54.3799 66.2844 54.3799 67.08V87.31C54.3799 88.1056 54.696 88.8687 55.2586 89.4313C55.8212 89.9939 56.5842 90.31 57.3799 90.31C58.1755 90.31 58.9386 89.9939 59.5012 89.4313C60.0638 88.8687 60.3799 88.1056 60.3799 87.31V67.08C60.3799 66.2844 60.0638 65.5213 59.5012 64.9587C58.9386 64.3961 58.1755 64.08 57.3799 64.08Z" fill="#CE2729"/>
    
    <path d="M66.1494 67.24C65.3538 67.24 64.5907 67.5561 64.0281 68.1187C63.4655 68.6813 63.1494 69.4443 63.1494 70.24V87.31C63.1494 88.1056 63.4655 88.8687 64.0281 89.4313C64.5907 89.9939 65.3538 90.31 66.1494 90.31C66.9451 90.31 67.7081 89.9939 68.2707 89.4313C68.8333 88.8687 69.1494 88.1056 69.1494 87.31V70.24C69.1494 69.4443 68.8333 68.6813 68.2707 68.1187C67.7081 67.5561 66.9451 67.24 66.1494 67.24Z" fill="#CE2729"/>
    
    <path d="M74.9297 69.52C74.134 69.52 73.371 69.8361 72.8084 70.3987C72.2458 70.9613 71.9297 71.7243 71.9297 72.52V87.31C71.9297 88.1056 72.2458 88.8687 72.8084 89.4313C73.371 89.9939 74.134 90.31 74.9297 90.31C75.7253 90.31 76.4884 89.9939 77.051 89.4313C77.6136 88.8687 77.9297 88.1056 77.9297 87.31V72.52C77.9297 71.7243 77.6136 70.9613 77.051 70.3987C76.4884 69.8361 75.7253 69.52 74.9297 69.52Z" fill="#CE2729"/>
    
    <path d="M48.1402 42.59C51.3521 42.5847 54.4308 41.3058 56.701 39.0337C58.9712 36.7616 60.2476 33.6819 60.2502 30.47H54.2502C54.2836 31.2938 54.1501 32.1159 53.8578 32.8869C53.5655 33.6578 53.1204 34.3618 52.5493 34.9565C51.9782 35.5512 51.2928 36.0243 50.5343 36.3475C49.7758 36.6707 48.9597 36.8373 48.1352 36.8373C47.3107 36.8373 46.4947 36.6707 45.7362 36.3475C44.9777 36.0243 44.2923 35.5512 43.7212 34.9565C43.15 34.3618 42.705 33.6578 42.4127 32.8869C42.1204 32.1159 41.9869 31.2938 42.0202 30.47H35.9902C35.9955 33.688 37.2783 36.7722 39.5566 39.0449C41.8348 41.3175 44.9222 42.5927 48.1402 42.59Z" fill="#CE2729"/>
    
    <path d="M45.4601 21.87C45.4601 21.0907 45.229 20.329 44.7961 19.681C44.3631 19.0331 43.7478 18.5281 43.0279 18.2299C42.3079 17.9317 41.5157 17.8537 40.7514 18.0057C39.9871 18.1577 39.2851 18.533 38.7341 19.084C38.1831 19.635 37.8078 20.3371 37.6558 21.1013C37.5038 21.8656 37.5818 22.6578 37.88 23.3778C38.1782 24.0977 38.6832 24.7131 39.3311 25.146C39.9791 25.5789 40.7408 25.81 41.5201 25.81C42.0379 25.8113 42.5508 25.7103 43.0294 25.5128C43.508 25.3152 43.9429 25.0251 44.309 24.6589C44.6751 24.2928 44.9653 23.8579 45.1629 23.3793C45.3604 22.9007 45.4614 22.3878 45.4601 21.87Z" fill="#CE2729"/>
    
    <path d="M58.3097 21.87C58.3097 21.0907 58.0786 20.329 57.6457 19.681C57.2127 19.0331 56.5974 18.5281 55.8775 18.2299C55.1575 17.9317 54.3653 17.8537 53.601 18.0057C52.8367 18.1577 52.1347 18.533 51.5837 19.084C51.0327 19.635 50.6574 20.3371 50.5054 21.1013C50.3534 21.8656 50.4314 22.6578 50.7296 23.3778C51.0278 24.0977 51.5328 24.7131 52.1807 25.146C52.8287 25.5789 53.5904 25.81 54.3697 25.81C55.4146 25.81 56.4168 25.3949 57.1557 24.656C57.8946 23.9171 58.3097 22.9149 58.3097 21.87Z" fill="#CE2729"/>
    
    <path d="M62.8599 5.61H33.8599C31.9441 5.61 30.1066 6.37036 28.751 7.72408C27.3954 9.07781 26.6325 10.9142 26.6299 12.83V55.31C26.6325 57.2258 27.3954 59.0622 28.751 60.4159C30.1066 61.7696 31.9441 62.53 33.8599 62.53H41.5199V56.53H33.8799C33.5554 56.53 33.244 56.4018 33.0137 56.1733C32.7833 55.9448 32.6525 55.6345 32.6499 55.31V12.83C32.6525 12.5055 32.7833 12.1952 33.0137 11.9667C33.244 11.7382 33.5554 11.61 33.8799 11.61H62.8799C63.2034 11.61 63.5138 11.7385 63.7426 11.9673C63.9713 12.1961 64.0999 12.5064 64.0999 12.83V55.31C64.0999 55.6336 63.9713 55.9439 63.7426 56.1727C63.5138 56.4015 63.2034 56.53 62.8799 56.53H51.2299V50.75C51.2299 49.9544 50.9138 49.1913 50.3512 48.6287C49.7886 48.0661 49.0255 47.75 48.2299 47.75C47.4342 47.75 46.6712 48.0661 46.1086 48.6287C45.546 49.1913 45.2299 49.9544 45.2299 50.75V56.53H45.1499V62.53H45.2299V76.3L42.1599 71C41.9831 70.6235 41.7301 70.2879 41.4167 70.0144C41.1033 69.741 40.7365 69.5357 40.3395 69.4115C39.9426 69.2874 39.5242 69.2472 39.1108 69.2934C38.6975 69.3396 38.2983 69.4713 37.9385 69.68C37.5788 69.8888 37.2664 70.17 37.0212 70.506C36.7759 70.8419 36.6032 71.2251 36.514 71.6314C36.4248 72.0376 36.4211 72.4579 36.503 72.8657C36.5849 73.2735 36.7507 73.6597 36.9899 74L45.5399 88.77C45.8736 89.3293 46.3837 89.7619 46.9899 90L47.2599 90.11L47.4699 90.18C47.7299 90.2559 47.999 90.2963 48.2699 90.3C49.0655 90.3 49.8286 89.9839 50.3912 89.4213C50.9538 88.8587 51.2699 88.0957 51.2699 87.3V62.53H62.8599C64.7739 62.5274 66.6088 61.7658 67.9623 60.4124C69.3157 59.0589 70.0772 57.2241 70.0799 55.31V12.83C70.0772 10.9159 69.3157 9.08105 67.9623 7.72761C66.6088 6.37417 64.7739 5.61265 62.8599 5.61Z" fill="#CE2729"/>
    
  </g>
  
  <defs>
    
    <clipPath id="clip0_217_3116">
      
      <rect fill="white" height="96" width="96"/>
      
    </clipPath>
    
  </defs>
  
</svg>
