<?xml version="1.0" encoding="UTF-8" standalone="no"?>
<svg xmlns="http://www.w3.org/2000/svg" fill="none" height="96" viewBox="0 0 96 96" width="96">
  
  <g clip-path="url(#clip0_217_3146)">
    
    <path d="M26.2744 65.6835L6.15723 85.8007L10.3999 90.0434L30.5171 69.9262L26.2744 65.6835Z" fill="#CE2729"/>
    
    <path d="M34.039 73.4525L24.9951 82.4964L29.2378 86.7391L38.2817 77.6952L34.039 73.4525Z" fill="#CE2729"/>
    
    <path d="M18.5527 57.9625L9.50879 67.0064L13.7514 71.249L22.7953 62.2052L18.5527 57.9625Z" fill="#CE2729"/>
    
    <path d="M90.2202 6.09H70.4902L48.1102 28.47L27.9902 28L11.4102 43.57L25.0902 57.24L39.1802 71.33L52.8502 85L68.4702 68.47L67.9902 48.14L90.2202 25.85V6.09ZM30.2702 34L42.2702 34.31L26.4502 50.13L19.9902 43.7L30.2702 34ZM62.4102 66.15L52.7302 76.4L46.2202 69.89L62.1002 54L62.4102 66.15ZM84.2202 23.37L41.9902 65.64L30.7002 54.36L72.9902 12.09H84.2202V23.37Z" fill="#CE2729"/>
    
    <path d="M68.6003 23.77C67.8447 23.77 67.1062 23.994 66.478 24.4138C65.8498 24.8335 65.3602 25.4301 65.0711 26.1281C64.7819 26.8262 64.7063 27.5942 64.8537 28.3352C65.0011 29.0762 65.3649 29.7569 65.8991 30.2911C66.4334 30.8254 67.114 31.1892 67.855 31.3366C68.596 31.484 69.3641 31.4083 70.0621 31.1192C70.7601 30.8301 71.3567 30.3405 71.7765 29.7123C72.1962 29.0841 72.4203 28.3455 72.4203 27.59C72.4203 26.5769 72.0178 25.6052 71.3014 24.8888C70.585 24.1725 69.6134 23.77 68.6003 23.77Z" fill="#CE2729"/>
    
  </g>
  
  <defs>
    
    <clipPath id="clip0_217_3146">
      
      <rect fill="white" height="96" width="96"/>
      
    </clipPath>
    
  </defs>
  
</svg>
