<?xml version="1.0" encoding="UTF-8" standalone="no"?>
<svg xmlns="http://www.w3.org/2000/svg" fill="none" height="96" viewBox="0 0 96 96" width="96">
  
  <g clip-path="url(#clip0_217_3151)">
    
    <path d="M35.7197 12.13H61.6097V6.13H29.7197V18.13H35.7197V12.13Z" fill="#CE2729"/>
    
    <path d="M72.3697 6.12H65.2097V29.65H84.0897V83.54H35.7197V78.21H29.7197V89.54H90.0897V22.84L72.3697 6.12ZM71.2297 23.65V13.3L82.2297 23.65H71.2297Z" fill="#CE2729"/>
    
    <path d="M49.4001 63.08L67.6701 74.93L70.9301 69.93L52.5601 58C55.1561 52.3604 55.5038 45.9429 53.5322 40.0558C51.5605 34.1687 47.4181 29.2551 41.9491 26.3165C36.4801 23.3779 30.0963 22.6355 24.0989 24.2406C18.1015 25.8458 12.942 29.6776 9.67196 34.9552C6.40195 40.2327 5.26764 46.5586 6.50022 52.6435C7.7328 58.7284 11.2395 64.1143 16.3055 67.7032C21.3716 71.2922 27.6156 72.8141 33.7649 71.9588C39.9141 71.1035 45.5058 67.9353 49.4001 63.1V63.08ZM11.8801 47.7C11.8781 44.0446 12.9602 40.4707 14.9897 37.4303C17.0191 34.39 19.9045 32.0198 23.2812 30.6196C26.6578 29.2193 30.3738 28.852 33.9592 29.5639C37.5446 30.2758 40.8384 32.0351 43.4239 34.6191C46.0093 37.2032 47.7704 40.496 48.4843 44.0811C49.1981 47.6661 48.8327 51.3823 47.4343 54.7597C46.0359 58.137 43.6673 61.0238 40.6281 63.0549C37.5888 65.0859 34.0155 66.17 30.3601 66.17C25.4622 66.1647 20.7664 64.2174 17.3021 60.755C13.8379 57.2927 11.888 52.5979 11.8801 47.7Z" fill="#CE2729"/>
    
  </g>
  
  <defs>
    
    <clipPath id="clip0_217_3151">
      
      <rect fill="white" height="96" width="96"/>
      
    </clipPath>
    
  </defs>
  
</svg>
