<?xml version="1.0" encoding="UTF-8" standalone="no"?>
<svg xmlns="http://www.w3.org/2000/svg" fill="none" height="96" viewBox="0 0 96 96" width="96">
  
  <g clip-path="url(#clip0_217_3149)">
    
    <path d="M90.1004 84.13H6.19043V90.13H90.1004V84.13Z" fill="#CE2729"/>
    
    <path d="M73.3205 9C72.2143 7.95549 70.9109 7.14193 69.4867 6.60685C68.0624 6.07178 66.5458 5.82592 65.0255 5.88364C63.5051 5.94136 62.0115 6.30151 60.6319 6.94304C59.2523 7.58457 58.0144 8.49462 56.9905 9.62L45.1105 22.75H53.2105L61.4705 13.66C61.9589 13.1263 62.5485 12.695 63.2051 12.3911C63.8616 12.0872 64.572 11.9168 65.2949 11.8898C66.0178 11.8629 66.7389 11.9798 67.4163 12.2339C68.0936 12.488 68.7137 12.8742 69.2405 13.37L81.0705 24.28L42.2005 68.51L32.3505 70.42L32.9905 61.05L69.1905 20.42L64.7105 16.42L27.1705 58.59L25.8105 77.81L45.3605 74L89.4505 23.85L73.3205 9Z" fill="#CE2729"/>
    
  </g>
  
  <defs>
    
    <clipPath id="clip0_217_3149">
      
      <rect fill="white" height="96" width="96"/>
      
    </clipPath>
    
  </defs>
  
</svg>
