<?xml version="1.0" encoding="UTF-8" standalone="no"?>
<svg xmlns="http://www.w3.org/2000/svg" fill="none" height="96" viewBox="0 0 96 96" width="96">
  
  <g clip-path="url(#clip0_312_2546)">
    
    <path d="M48.2498 71.23C46.4414 71.1711 44.6903 70.5807 43.2153 69.5327C41.7403 68.4846 40.6067 67.0253 39.956 65.3369C39.3053 63.6485 39.1663 61.8059 39.5565 60.039C39.9466 58.2721 40.8486 56.6593 42.1498 55.402C43.4509 54.1446 45.0937 53.2983 46.8728 52.9688C48.652 52.6394 50.4888 52.8413 52.154 53.5494C53.8191 54.2575 55.2388 55.4403 56.2357 56.9503C57.2327 58.4603 57.7628 60.2306 57.7598 62.04C57.7125 64.5182 56.6852 66.8766 54.9028 68.599C53.1204 70.3215 50.7282 71.2675 48.2498 71.23ZM48.2498 58.83C47.6311 58.8881 47.0425 59.1246 46.5555 59.5107C46.0685 59.8968 45.7041 60.416 45.5065 61.0053C45.3088 61.5945 45.2865 62.2284 45.4422 62.8301C45.5979 63.4318 45.9249 63.9753 46.3835 64.3947C46.8422 64.8142 47.4127 65.0914 48.0258 65.1929C48.639 65.2943 49.2684 65.2156 49.8377 64.9663C50.407 64.717 50.8916 64.3077 51.2328 63.7883C51.574 63.2688 51.7571 62.6615 51.7598 62.04C51.7157 61.1504 51.3223 60.3142 50.665 59.7131C50.0078 59.112 49.1398 58.7946 48.2498 58.83Z" fill="#CE2729"/>
    
    <path d="M65.3997 89.86H59.3997C59.3997 83.92 54.2597 79.04 47.9497 79.04C41.6397 79.04 36.4697 83.92 36.4697 89.86H30.4697C30.4697 80.61 38.2997 73.04 47.9497 73.04C57.5997 73.04 65.3997 80.61 65.3997 89.86Z" fill="#CE2729"/>
    
    <path d="M32.8891 32.78C35.5235 32.78 37.6591 30.6444 37.6591 28.01C37.6591 25.3756 35.5235 23.24 32.8891 23.24C30.2547 23.24 28.1191 25.3756 28.1191 28.01C28.1191 30.6444 30.2547 32.78 32.8891 32.78Z" fill="#CE2729"/>
    
    <path d="M48.06 32.78C50.6944 32.78 52.83 30.6444 52.83 28.01C52.83 25.3756 50.6944 23.24 48.06 23.24C45.4256 23.24 43.29 25.3756 43.29 28.01C43.29 30.6444 45.4256 32.78 48.06 32.78Z" fill="#CE2729"/>
    
    <path d="M63.1899 32.78C65.8243 32.78 67.9599 30.6444 67.9599 28.01C67.9599 25.3756 65.8243 23.24 63.1899 23.24C60.5555 23.24 58.4199 25.3756 58.4199 28.01C58.4199 30.6444 60.5555 32.78 63.1899 32.78Z" fill="#CE2729"/>
    
    <path d="M68.2596 6.04H27.6796C24.8099 5.97819 21.9567 6.49003 19.2874 7.5455C16.6181 8.60096 14.1865 10.1788 12.1351 12.1865C10.0837 14.1942 8.45385 16.5913 7.34114 19.2372C6.22844 21.8831 5.65527 24.7246 5.65527 27.595C5.65527 30.4654 6.22844 33.3069 7.34114 35.9528C8.45385 38.5987 10.0837 40.9958 12.1351 43.0035C14.1865 45.0112 16.6181 46.589 19.2874 47.6445C21.9567 48.7 24.8099 49.2118 27.6796 49.15H59.0396V43.15H27.6796C25.6037 43.2026 23.5382 42.8392 21.605 42.0812C19.6717 41.3231 17.9098 40.1858 16.4229 38.7362C14.9361 37.2865 13.7544 35.554 12.9476 33.6405C12.1408 31.7271 11.7251 29.6716 11.7251 27.595C11.7251 25.5184 12.1408 23.4629 12.9476 21.5495C13.7544 19.636 14.9361 17.9035 16.4229 16.4538C17.9098 15.0042 19.6717 13.8669 21.605 13.1088C23.5382 12.3508 25.6037 11.9874 27.6796 12.04H68.2596C72.3899 12.0453 76.3491 13.6905 79.2669 16.6139C82.1847 19.5373 83.8222 23.4997 83.8196 27.63C83.9101 29.5154 83.6133 31.3993 82.9478 33.1656C82.2822 34.9319 81.2618 36.5432 79.9496 37.9L79.4496 38.51C78.0596 40.19 72.7996 46.04 68.6896 50.66V43.18H62.6896V49.18H62.7396V66.27L67.9496 60.49C68.5096 59.87 81.6996 45.27 84.1096 42.31L84.5796 41.74C86.3482 39.8536 87.7255 37.6353 88.6318 35.2134C89.538 32.7916 89.9553 30.2141 89.8596 27.63C89.8609 24.7936 89.303 21.9847 88.2179 19.364C87.1327 16.7433 85.5415 14.3623 83.5354 12.3571C81.5293 10.3519 79.1475 8.76184 76.5263 7.67789C73.9052 6.59395 71.096 6.03737 68.2596 6.04Z" fill="#CE2729"/>
    
  </g>
  
  <defs>
    
    <clipPath id="clip0_312_2546">
      
      <rect fill="white" height="96" width="96"/>
      
    </clipPath>
    
  </defs>
  
</svg>
